<svg id="Capa_1" enable-background="new 0 0 497 497" height="512" viewBox="0 0 497 497" width="512" xmlns="http://www.w3.org/2000/svg"><g><g><path d="m190.158 356.288h116.685v81.671h-116.685z" fill="#b4aaaa"/></g><g><path d="m276.843 356.287h30v81.671h-30z" fill="#9b9696"/></g><g><path d="m497 319.762v-256.357c0-6.552-5.311-11.863-11.863-11.863h-473.274c-6.552 0-11.863 5.311-11.863 11.863v256.357l251.11 23.805z" fill="#ddebfd"/></g><g><path d="m485.137 51.542h-30c6.552 0 11.863 5.311 11.863 11.863v315.657c0 6.552-5.311 11.863-11.863 11.863h30c6.552 0 11.863-5.311 11.863-11.863v-315.657c0-6.552-5.311-11.863-11.863-11.863z" fill="#bed9fd"/></g><g><path d="m196.796 319.762c-.571-3.105-.885-6.301-.885-9.571 0-29.044 23.545-52.589 52.589-52.589s52.589 23.545 52.589 52.589c0 3.27-.314 6.466-.885 9.571l36.023 10h45.74c5.134 0 9.296-4.162 9.296-9.296v-18.724c0-5.134-4.162-9.296-9.296-9.296h-9.564c-4.379 0-8.148-3.061-9.079-7.34-3.013-13.85-8.469-26.786-15.893-38.339-2.372-3.691-1.883-8.526 1.22-11.628l6.773-6.773c3.63-3.63 3.63-9.516 0-13.147l-11.95-11.95c-3.63-3.63-9.516-3.63-13.147 0l-6.773 6.773c-3.102 3.102-7.937 3.592-11.628 1.22-11.553-7.423-24.49-12.88-38.339-15.893-4.279-.931-7.34-4.7-7.34-9.079v-9.564c0-5.134-4.162-9.296-9.296-9.296h-16.9c-5.134 0-9.296 4.162-9.296 9.296v9.564c0 4.379-3.061 8.148-7.34 9.079-13.85 3.013-26.786 8.469-38.339 15.893-3.691 2.372-8.526 1.882-11.628-1.22l-6.773-6.773c-3.63-3.63-9.516-3.63-13.147 0l-11.95 11.95c-3.63 3.63-3.63 9.516 0 13.147l6.773 6.773c3.102 3.102 3.592 7.937 1.22 11.628-7.424 11.553-12.88 24.49-15.893 38.339-.931 4.279-4.7 7.34-9.079 7.34h-9.564c-5.134 0-9.296 4.162-9.296 9.296v18.724c0 5.134 4.162 9.296 9.296 9.296h37.292z" fill="#80b6fc"/></g><g><path d="m328.727 445.458h-160.454c-4.142 0-7.5-3.358-7.5-7.5s3.358-7.5 7.5-7.5h160.454c4.142 0 7.5 3.358 7.5 7.5s-3.358 7.5-7.5 7.5z" fill="#c8beb9"/></g><g><g><path d="m136.826 107.701h-97.932c-4.142 0-7.5-3.358-7.5-7.5s3.358-7.5 7.5-7.5h97.931c4.142 0 7.5 3.358 7.5 7.5.001 4.142-3.357 7.5-7.499 7.5z" fill="#bed9fd"/></g><g><path d="m70.649 141.315h-31.755c-4.142 0-7.5-3.358-7.5-7.5s3.358-7.5 7.5-7.5h31.755c4.142 0 7.5 3.358 7.5 7.5s-3.358 7.5-7.5 7.5z" fill="#bed9fd"/></g><g><path d="m451.732 141.315h-31.755c-4.143 0-7.5-3.358-7.5-7.5s3.357-7.5 7.5-7.5h31.755c4.143 0 7.5 3.358 7.5 7.5s-3.358 7.5-7.5 7.5z" fill="#bed9fd"/></g><g><path d="m451.732 174.929h-31.755c-4.143 0-7.5-3.358-7.5-7.5s3.357-7.5 7.5-7.5h31.755c4.143 0 7.5 3.358 7.5 7.5s-3.358 7.5-7.5 7.5z" fill="#bed9fd"/></g><g><path d="m451.732 208.542h-31.755c-4.143 0-7.5-3.358-7.5-7.5s3.357-7.5 7.5-7.5h31.755c4.143 0 7.5 3.358 7.5 7.5s-3.358 7.5-7.5 7.5z" fill="#bed9fd"/></g></g><g><path d="m0 319.762v59.3c0 6.552 5.311 11.863 11.863 11.863h473.274c6.552 0 11.863-5.311 11.863-11.863v-59.3z" fill="#dcd2cd"/></g><g><path d="m467 319.762v59.3c0 6.552-5.311 11.863-11.863 11.863h30c6.552 0 11.863-5.311 11.863-11.863v-59.3z" fill="#c8beb9"/></g></g></svg>