<svg height="505pt" viewBox="0 -8 505.20119 505" width="505pt" xmlns="http://www.w3.org/2000/svg"><path d="m320.625 164.332031v161.660157c0 11.039062-8.960938 20-20 20h-158.71875c-11.039062 0-20-8.960938-20-20v-161.660157c0-11.058593 8.960938-20 20-20h158.71875c11.039062 0 20 8.941407 20 20zm0 0" fill="#73d7f9"/><path d="m320.625 164.332031v161.660157c0 11.039062-8.960938 20-20 20h-128.71875c-11.039062 0-20-8.960938-20-20v-161.660157c0-11.058593 8.960938-20 20-20h128.71875c11.039062 0 20 8.941407 20 20zm0 0" fill="#5fcdff"/><path d="m320.625 164.332031v161.660157c0 11.039062-8.960938 20-20 20h-30c11.039062 0 20-8.960938 20-20v-161.660157c0-11.058593-8.960938-20-20-20h30c11.039062 0 20 8.941407 20 20zm0 0" fill="#30b6ff"/><path d="m180.933594 144.820312v68.859376l20.167968-13.769532 20.167969 13.769532 20.167969-13.769532 20.164062 13.769532v-68.859376zm0 0" fill="#3193f3"/><path d="m434.578125 385.921875c-44.5 59.777344-115.5 95.457031-189.9375 95.457031-130.480469 0-236.640625-106.160156-236.640625-236.636718 0-130.480469 106.160156-236.640626 236.640625-236.640626 78.738281 0 152.097656 39 196.21875 104.300782 8.179687 12.097656 5 28.519531-7.097656 36.699218-2.382813 1.597657-4.941407 2.777344-7.5625 3.5-10.679688 3.058594-22.558594-.902343-29.121094-10.601562-34.296875-50.757812-91.277344-81.058594-152.4375-81.058594-101.339844 0-183.800781 82.460938-183.800781 183.800782 0 101.339843 82.460937 183.796874 183.800781 183.796874 58.679687 0 112.460937-27.039062 147.558594-74.160156 7.039062-9.476562 19.199219-12.859375 29.78125-9.21875 2.5.859375 4.941406 2.121094 7.179687 3.800782 11.699219 8.71875 14.140625 25.257812 5.417969 36.960937zm0 0" fill="#35b1fc"/><path d="m60.839844 244.742188c0 101.339843 82.460937 183.796874 183.800781 183.796874 58.679687 0 112.460937-27.039062 147.558594-74.160156 7.039062-9.476562 19.199219-12.859375 29.78125-9.21875 3.757812 7.621094 3.21875 17-2.179688 24.28125-39.300781 52.777344-102.019531 84.300782-167.742187 84.300782-115.257813 0-209-93.761719-209-209 0-115.242188 93.742187-209 209-209 69.519531 0 134.300781 34.4375 173.28125 92.117187 5.160156 7.640625 5.199218 17.261719.859375 24.742187-10.679688 3.058594-22.558594-.902343-29.121094-10.601562-34.296875-50.757812-91.277344-81.058594-152.4375-81.058594-101.339844 0-183.800781 82.460938-183.800781 183.800782zm0 0" fill="#3193f3"/><path d="m495.101562 219.742188c-5.082031 10.957031-18.582031 16.898437-30.761718 11.078124l-53.898438-25.660156-53.882812-25.660156c-15.980469-7.621094-17.71875-29.660156-3.136719-39.679688l49.15625-33.839843 49.183594-33.839844c.179687-.121094.359375-.238281.539062-.339844 14.519531-9.441406 34.019531.039063 35.378907 17.460938l4.71875 59.5 4.722656 59.5c.339844 4.179687-.441406 8.078125-2.019532 11.480469zm0 0" fill="#35b1fc"/><path d="m495.101562 219.742188c-3.742187.257812-7.640624-.402344-11.421874-2.203126l-53.898438-25.679687-53.902344-25.660156c-15.957031-7.597657-17.699218-29.636719-3.140625-39.660157l49.183594-33.839843 30.378906-20.898438c14.519531-9.441406 34.019531.039063 35.378907 17.460938l4.71875 59.5 4.722656 59.5c.339844 4.179687-.441406 8.078125-2.019532 11.480469zm0 0" fill="#3193f3"/><path d="m495.101562 219.742188c-3.742187.257812-7.640624-.402344-11.421874-2.203126l-4.960938-2.359374-4.320312-54.417969-4.71875-59.5c-1.28125-16.320313-18.460938-25.660157-32.539063-19.019531l15.160156-10.441407c14.519531-9.441406 34.019531.039063 35.378907 17.460938l4.71875 59.5 4.722656 59.5c.339844 4.179687-.441406 8.078125-2.019532 11.480469zm0 0" fill="#307fed"/><g fill="#5f266d"><path d="m505.101562 207.640625-9.441406-119.019531c-.878906-11.160156-7.441406-20.699219-17.558594-25.519532-10.121093-4.800781-21.660156-3.882812-30.882812 2.460938l-21.417969 14.738281c-46.0625-50.761719-111.582031-80.199219-181.160156-80.199219-134.878906 0-244.640625 109.738282-244.640625 244.640626 0 134.898437 109.761719 244.636718 244.640625 244.636718 76.960937 0 150.359375-36.878906 196.359375-98.679687 5.480469-7.359375 7.78125-16.4375 6.441406-25.539063-4.546875-30.367187-43.496094-39.984375-61.660156-15.558594-33.582031 45.078126-85.019531 70.9375-141.140625 70.9375-96.921875 0-175.800781-78.859374-175.800781-175.796874 0-156.070313 189.253906-234.203126 299.5-124.902344l-19.460938 13.402344c-19.621094 13.492187-17.328125 43.203124 4.242188 53.476562l107.777344 51.34375c21.566406 10.230469 46.074218-6.644531 44.203124-30.421875zm-260.460937-154.699219c-105.761719 0-191.800781 86.039063-191.800781 191.800782 0 105.757812 86.039062 191.796874 191.800781 191.796874 61.238281 0 117.359375-28.199218 153.960937-77.378906 6.078126-8.160156 17.636719-9.839844 25.777344-3.78125 8.183594 6.074219 9.863282 17.585938 3.78125 25.78125-43 57.742188-111.601562 92.21875-183.519531 92.21875-126.0625 0-228.640625-102.558594-228.640625-228.636718 0-126.082032 102.578125-228.640626 228.640625-228.640626 64.300781 0 124.898437 26.917969 167.859375 73.359376l-30.761719 21.160156c-35.757812-36.582032-84.976562-57.679688-137.097656-57.679688zm223.140625 170.660156-107.78125-51.320312c-10.476562-5.003906-11.507812-19.378906-2.058594-25.859375 106.828125-73.519531 100.507813-70.339844 106.820313-70.339844 7.359375 0 14.28125 5.519531 14.957031 13.820313l9.421875 119c.933594 11.460937-10.953125 19.6875-21.359375 14.699218zm0 0"/><path d="m142.558594 135.902344c-15.4375 0-28 12.558594-28 28v161.679687c0 15.4375 12.5625 28 28 28h158.703125c15.4375 0 28-12.5625 28-28v-161.679687c0-15.441406-12.5625-28-28-28zm47.015625 16h64.667969v46.207031c-14.289063-9.757813-10.316407-9.570313-32.332032 5.464844-22.082031-15.078125-18.070312-15.207031-32.335937-5.464844zm123.6875 12v161.679687c0 6.617188-5.382813 12-12 12h-158.703125c-6.617188 0-12-5.382812-12-12v-161.679687c0-6.621094 5.382812-12 12-12h31.015625v61.359375c0 6.417969 7.207031 10.226562 12.515625 6.605469l15.652344-10.691407c23.472656 16.027344 16.609374 16.203125 40.335937 0 15.488281 10.578125 18.414063 14.054688 23.898437 11.160157 2.625-1.386719 4.265626-4.109376 4.265626-7.074219v-61.359375h31.019531c6.617187 0 12 5.378906 12 12zm0 0"/></g></svg>